<svg xmlns="http://www.w3.org/2000/svg" width="305.064" height="307.611" viewBox="0 0 305.064 307.611">
  <g id="Group_4" data-name="Group 4" transform="translate(-48.936 -127.389)">
    <g id="Group_2" data-name="Group 2">
      <path id="Path_1" data-name="Path 1" d="M154.9,307.611A108.167,108.167,0,0,0,262.955,199.574C262.955,141.229,161.69,8.81,157.377,3.2L154.9,0l-2.474,3.224c-2.407,3.128-35.114,45.889-63.463,93.137-22.418,37.362-42.113,77.5-42.113,103.223A108.165,108.165,0,0,0,154.9,307.611Z" transform="translate(56.064 127.389)" fill="#fff"/>
      <path id="Subtraction_1" data-name="Subtraction 1" d="M261.751,99.674a159.367,159.367,0,0,0-19.106-6.714c-10.624-3.064-26.912-6.717-44.172-6.717a106.341,106.341,0,0,0-22.937,2.378c-1.765-2.987-3.618-6.072-5.509-9.172,5.367-.395,10.689-.594,15.819-.594a172.142,172.142,0,0,1,34.181,3.253,125.494,125.494,0,0,1,23.614,7.157,86.473,86.473,0,0,1,13.694,7.157,40.2,40.2,0,0,1,4.416,3.249Z" transform="translate(90.839 165.389)" fill="#fff"/>
      <path id="Subtraction_2" data-name="Subtraction 2" d="M194.254,122.761h0c-1.085-2.173-2.229-4.416-3.4-6.667a163.4,163.4,0,0,1,31.927-10.2,118.123,118.123,0,0,1,23.4-2.488c10.851,0,16.919,1.834,16.979,1.852a163.088,163.088,0,0,0-22.546,2.379c-12.1,2.055-29.958,6.347-46.36,15.126Z" transform="translate(90.839 165.389)" fill="#fff"/>
      <path id="Subtraction_1-2" data-name="Subtraction 1" d="M293.751,99.674c-.419-.139-10.434-3.435-25.772-6.714-14.331-3.064-36.3-6.717-59.582-6.717a191.815,191.815,0,0,0-30.938,2.378c-2.381-2.987-4.88-6.072-7.431-9.172,7.239-.395,14.418-.594,21.338-.594a310.922,310.922,0,0,1,46.105,3.253,215.181,215.181,0,0,1,31.852,7.157A134.547,134.547,0,0,1,287.8,96.424a56.018,56.018,0,0,1,5.957,3.249Z" transform="translate(344.096 489.856) rotate(-180)" fill="#fff"/>
      <path id="Subtraction_2-2" data-name="Subtraction 2" d="M194.254,122.761h0c-1.085-2.173-2.229-4.416-3.4-6.667a163.4,163.4,0,0,1,31.927-10.2,118.123,118.123,0,0,1,23.4-2.488c10.851,0,16.919,1.834,16.979,1.852a163.088,163.088,0,0,0-22.546,2.379c-12.1,2.055-29.958,6.347-46.36,15.126Z" transform="translate(312.096 489.856) rotate(-180)" fill="#fff"/>
    </g>
    <g id="Group_5" data-name="Group 5">
      <path id="Path_2" data-name="Path 2" d="M186.077,721.734c44.234-25.767,34.786-4.295,16.749,14.172s0,13.313,0,13.313,12.454,1.288,45.522-36.074,103.928-33.5,103.928-33.5v-6.872S200.25,599.34,130.06,767.8c-7.146,17.115,17.121-7.865,34.115-28.029C173.1,729.187,186.077,721.734,186.077,721.734Z" transform="translate(1.159 -408.614)" fill="#e94364"/>
      <path id="Path_2-2" data-name="Path 2" d="M186.077,721.734c44.234-25.767,34.786-4.295,16.749,14.172s0,13.313,0,13.313,12.454,1.288,45.522-36.074,103.928-33.5,103.928-33.5v-6.872S200.25,599.34,130.06,767.8c-7.146,17.115,17.121-7.865,34.115-28.029C173.1,729.187,186.077,721.734,186.077,721.734Z" transform="translate(401.777 1063.859) rotate(-180)" fill="#e94364"/>
    </g>
  </g>
</svg>
