<!DOCTYPE svg PUBLIC "-//W3C//DTD SVG 20010904//EN" "http://www.w3.org/TR/2001/REC-SVG-20010904/DTD/svg10.dtd">
<svg version="1.0" xmlns="http://www.w3.org/2000/svg" width="800px" height="600px" viewBox="0 0 8000 6000" preserveAspectRatio="xMidYMid meet">
<g id="layer101" fill="#9e251e" stroke="none">
 <path d="M0 3000 l0 -3000 4000 0 4000 0 0 3000 0 3000 -4000 0 -4000 0 0 -3000z"/>
 </g>
<g id="layer102" fill="#397c9a" stroke="none">
 <path d="M0 3000 l0 -3000 4000 0 4000 0 0 3000 0 3000 -4000 0 -4000 0 0 -3000z m4100 305 c63 -64 64 -65 45 -85 l-19 -21 -68 68 c-63 63 -67 68 -51 85 9 10 19 18 22 18 4 0 35 -29 71 -65z"/>
 </g>
<g id="layer103" fill="#ef3f37" stroke="none">
 <path d="M0 3000 l0 -3000 4000 0 4000 0 0 3000 0 3000 -4000 0 -4000 0 0 -3000z m4100 305 c63 -64 64 -65 45 -85 l-19 -21 -68 68 c-63 63 -67 68 -51 85 9 10 19 18 22 18 4 0 35 -29 71 -65z m50 -810 l-20 -20 -67 67 c-66 67 -67 67 -48 88 l19 21 68 -68 68 -67 -20 -21z"/>
 </g>
<g id="layer104" fill="#d76858" stroke="none">
 <path d="M0 3000 l0 -3000 4000 0 4000 0 0 3000 0 3000 -4000 0 -4000 0 0 -3000z m4221 815 c3 2 63 -54 134 -125 l130 -130 -180 -180 -180 -180 -67 67 -68 68 115 115 c63 63 115 120 115 126 0 7 -7 17 -15 24 -12 10 -15 37 -15 122 0 91 2 109 13 99 8 -6 16 -9 18 -6z m550 -542 c103 -104 201 -209 218 -235 123 -184 124 -467 2 -655 -54 -83 -157 -175 -243 -217 -175 -87 -368 -86 -547 1 -70 34 -100 60 -394 352 l-318 315 181 181 180 180 67 -68 68 -67 -113 -113 -112 -112 237 -237 c137 -136 255 -244 278 -256 144 -72 299 -67 426 14 137 86 218 266 189 417 -23 125 -46 156 -253 365 l-191 192 64 65 c35 36 67 65 70 65 3 0 89 -84 191 -187z m-621 -778 l-20 -20 -67 67 c-66 67 -67 67 -48 88 l19 21 68 -68 68 -67 -20 -21z"/>
 </g>
<g id="layer105" fill="#c9796b" stroke="none">
 <path d="M0 3000 l0 -3000 4000 0 4000 0 0 3000 0 3000 -4000 0 -4000 0 0 -3000z m4194 840 c7 -14 17 -24 22 -23 6 1 70 -58 142 -130 l132 -132 -180 -180 -180 -180 -70 70 -70 70 112 112 111 112 -56 61 -57 61 0 132 0 131 41 -39 c22 -22 46 -51 53 -65z m583 -572 c105 -106 205 -215 223 -243 91 -146 110 -351 50 -523 -121 -343 -519 -499 -853 -335 -65 32 -102 66 -390 352 l-317 316 180 180 180 180 70 -70 70 -70 -112 -112 -113 -113 112 -112 113 -113 22 23 22 22 68 -67 68 -67 -23 -24 -22 -24 55 -49 c75 -67 124 -95 200 -115 184 -47 386 50 473 225 30 62 32 71 32 181 0 169 -10 186 -249 428 l-190 192 64 65 c35 36 67 65 70 65 3 0 91 -87 197 -192z"/>
 </g>
<g id="layer106" fill="#bd847a" stroke="none">
 <path d="M0 3000 l0 -3000 4000 0 4000 0 0 3000 0 3000 -4000 0 -4000 0 0 -3000z m4190 843 c0 -7 6 -10 13 -8 6 3 75 -58 152 -135 l140 -140 -182 -182 -183 -183 -70 70 -70 70 112 112 112 112 -87 90 -87 90 0 133 0 132 75 -74 c41 -41 75 -80 75 -87z m767 -758 c181 -237 172 -560 -22 -782 -61 -70 -174 -144 -266 -174 -105 -34 -283 -35 -380 -1 -126 44 -173 81 -494 402 l-306 304 181 180 180 181 70 -70 70 -70 -112 -113 -113 -113 113 -111 112 -111 23 21 23 22 67 -68 68 -68 -21 -19 -21 -19 57 -57 c66 -67 135 -103 227 -120 196 -36 397 90 462 290 28 85 18 207 -24 296 -28 61 -56 94 -219 258 l-186 187 69 70 70 70 163 -162 c90 -90 184 -190 209 -223z"/>
 </g>
<g id="layer107" fill="#ae908e" stroke="none">
 <path d="M0 3000 l0 -3000 4000 0 4000 0 0 3000 0 3000 -4000 0 -4000 0 0 -3000z m4246 806 l249 -244 -182 -184 -183 -183 -70 70 -70 70 112 112 113 113 -110 112 c-61 62 -113 114 -117 116 -11 5 -10 262 1 262 4 0 120 -110 257 -244z m771 -813 c54 -108 77 -211 70 -317 -17 -268 -203 -495 -462 -561 -77 -19 -221 -19 -298 1 -147 38 -166 53 -512 394 -176 173 -321 317 -322 320 -2 3 78 86 177 185 l180 180 70 -70 70 -70 -112 -113 -113 -113 113 -111 113 -111 22 22 23 21 67 -68 68 -68 -21 -19 -21 -19 53 -54 c203 -207 537 -154 665 106 37 73 38 80 38 181 0 99 -2 111 -33 175 -28 60 -58 95 -219 258 l-187 188 69 71 70 70 196 -198 c176 -178 199 -206 236 -280z"/>
 </g>
<g id="layer108" fill="#9a9ba4" stroke="none">
 <path d="M0 3000 l0 -3000 4000 0 4000 0 0 3000 0 3000 -4000 0 -4000 0 0 -3000z m4313 378 l-183 -183 -70 70 -70 70 112 112 113 113 -112 112 -112 112 -29 -27 c-15 -15 -31 -27 -35 -27 -4 0 -7 57 -7 127 l0 127 37 38 37 38 251 -250 250 -250 -182 -182z m459 -95 c255 -258 302 -338 314 -538 12 -182 -47 -337 -176 -465 -135 -135 -265 -185 -460 -177 -133 5 -207 27 -297 87 -32 21 -195 173 -363 338 l-305 300 182 184 183 183 70 -70 70 -70 -110 -110 -110 -110 113 -113 c113 -113 113 -113 132 -92 l19 21 68 -68 68 -67 -20 -21 -20 -22 58 -55 c70 -67 122 -95 213 -114 299 -62 560 228 470 524 -28 93 -75 153 -270 347 l-161 160 67 67 c37 38 70 68 73 68 3 0 89 -84 192 -187z"/>
 </g>
<g id="layer109" fill="#8ba5b6" stroke="none">
 <path d="M0 3000 l0 -3000 4000 0 4000 0 0 3000 0 3000 -4000 0 -4000 0 0 -3000z m4245 810 l250 -250 -182 -182 -183 -183 -70 70 -70 70 112 112 113 113 -112 112 -113 113 -60 -60 -60 -59 0 135 0 136 56 61 c31 34 59 62 62 62 4 0 120 -113 257 -250z m527 -527 c255 -258 302 -338 314 -538 12 -182 -47 -337 -176 -465 -135 -135 -265 -185 -460 -177 -132 5 -206 27 -297 86 -32 21 -195 173 -363 339 l-305 301 182 183 183 183 70 -70 70 -70 -110 -110 -110 -110 113 -113 c113 -113 113 -113 132 -92 l19 21 68 -68 68 -67 -20 -21 -20 -22 58 -55 c70 -67 122 -95 213 -114 299 -62 560 228 470 524 -28 93 -75 153 -270 347 l-161 160 67 67 c37 38 70 68 73 68 3 0 89 -84 192 -187z"/>
 </g>
<g id="layer110" fill="#58b7e0" stroke="none">
 <path d="M0 3000 l0 -3000 4000 0 4000 0 0 3000 0 3000 -4000 0 -4000 0 0 -3000z m4245 810 l250 -250 -182 -182 -183 -183 -70 70 -70 70 112 112 113 113 -113 112 -112 113 -94 -94 c-51 -51 -96 -89 -99 -84 -3 5 -7 65 -8 132 l-1 123 98 99 c54 55 101 99 104 99 3 0 118 -113 255 -250z m527 -527 c255 -258 302 -338 314 -538 12 -182 -47 -337 -176 -465 -135 -135 -265 -185 -460 -177 -132 5 -206 27 -297 86 -32 21 -195 173 -363 339 l-305 301 182 183 183 183 70 -70 70 -70 -110 -110 -110 -110 110 -110 c108 -108 109 -109 130 -90 20 18 21 17 93 -53 l74 -71 -21 -20 -20 -21 48 -49 c163 -165 421 -167 584 -4 146 146 162 374 38 539 -24 33 -116 131 -205 219 l-161 160 67 67 c37 38 70 68 73 68 3 0 89 -84 192 -187z"/>
 </g>
<g id="layer111" fill="#f7fcfe" stroke="none">
 <path d="M0 3000 l0 -3000 4000 0 4000 0 0 3000 0 3000 -4000 0 -4000 0 0 -3000z m4245 810 l250 -250 -183 -182 -182 -183 182 -182 183 -183 -180 -180 -180 -180 49 -49 c163 -165 421 -167 584 -4 133 133 160 337 65 503 -15 25 -109 128 -209 230 l-184 186 70 69 70 70 176 -175 c185 -185 227 -234 269 -318 40 -79 55 -139 61 -237 12 -182 -47 -337 -176 -465 -125 -126 -256 -180 -432 -180 -169 0 -295 49 -411 160 l-71 67 -77 -67 c-130 -112 -255 -160 -416 -160 -49 0 -116 7 -148 15 -203 52 -369 206 -432 402 -51 160 -39 316 38 472 38 77 59 102 240 285 l198 201 70 -70 71 -69 -190 -191 c-164 -166 -194 -201 -222 -261 -31 -64 -33 -76 -33 -174 0 -102 1 -109 38 -182 127 -258 444 -312 666 -112 l53 47 -184 184 -183 183 183 182 182 183 -182 182 -183 183 130 131 c72 72 141 135 154 140 13 5 21 13 17 16 -6 6 192 213 204 213 3 0 118 -113 255 -250z"/>
 <path d="M3895 3690 c-49 -49 -91 -87 -94 -85 -8 8 -31 -17 -31 -34 0 -9 50 -66 110 -126 l110 -110 112 113 113 112 -110 110 c-60 60 -112 110 -115 110 -3 0 -46 -40 -95 -90z"/>
 <path d="M3877 2942 l-107 -107 109 -109 109 -109 39 31 c21 17 72 65 113 106 l75 76 -110 110 c-60 61 -112 110 -115 110 -3 0 -54 -48 -113 -108z"/>
 </g>

</svg>